<?xml version="1.0" encoding="UTF-8" standalone="no"?>
<!DOCTYPE svg PUBLIC "-//W3C//DTD SVG 1.1//EN" "http://www.w3.org/Graphics/SVG/1.1/DTD/svg11.dtd">
<svg width="100%" height="100%" viewBox="0 0 386 207" version="1.1" xmlns="http://www.w3.org/2000/svg" xmlns:xlink="http://www.w3.org/1999/xlink" xml:space="preserve" xmlns:serif="http://www.serif.com/" style="fill-rule:evenodd;clip-rule:evenodd;stroke-linejoin:round;stroke-miterlimit:2;">
    <g transform="matrix(1.19256,0,0,1.19256,-37.7577,-28.3596)">
        <path d="M92.334,155.463C91.641,155.463 89.281,156.156 87.199,159.209C85.118,162.262 75.681,177.805 74.016,180.719C72.211,183.633 72.767,184.883 74.709,184.883L78.872,184.883C80.815,184.883 82.619,182.662 83.313,181.135C84.285,179.748 95.386,161.707 97.19,159.072C98.716,156.434 97.746,155.465 96.496,155.465C95.388,155.463 92.334,155.463 92.334,155.463Z" style="fill:white;fill-rule:nonzero;"/>
        <path d="M54.449,184.883C61.527,184.606 66.245,184.326 71.796,174.197C74.155,169.617 67.494,169.477 67.494,169.477C66.522,169.477 73.6,169.617 77.347,161.706C80.817,154.489 74.71,155.046 73.601,154.907C68.327,154.212 58.474,154.489 50.981,154.907C49.454,154.907 47.65,156.987 46.678,158.237C45.985,159.624 34.466,178.218 32.801,180.856C30.996,183.63 32.801,184.743 34.605,184.88C39.878,185.16 46.539,185.16 54.449,184.883ZM60.555,175.168C58.613,179.193 55.004,179.332 52.923,179.332L47.372,179.332C46.678,179.332 45.984,179.332 46.678,177.805C47.65,176.557 49.037,174.336 49.593,173.502C50.148,172.531 50.702,172.254 51.951,172.254L57.919,172.254C59.029,172.254 61.943,172.115 60.555,175.168ZM65.689,163.234C63.747,167.256 60,167.256 58.057,167.256L54.727,167.256C54.171,167.256 53.2,167.256 54.171,166.008C55.143,164.619 56.252,162.26 56.946,161.428C57.639,160.596 58.195,160.178 59.167,160.178L63.191,160.178C64.302,160.18 67.217,160.18 65.689,163.234Z" style="fill:white;fill-rule:nonzero;"/>
        <path d="M285.506,166.564L276.348,181.134C274.406,184.187 276.072,184.882 277.041,184.882L281.066,184.882C282.591,184.882 283.703,184.743 286.062,181.134L295.22,166.286C297.718,162.261 294.664,162.54 292.722,162.54C289.254,162.678 288.422,162.541 285.506,166.564Z" style="fill:white;fill-rule:nonzero;"/>
        <path d="M323.254,167.535L312.289,167.535C311.18,167.535 309.652,168.508 308.82,169.617C308.127,170.727 308.543,171.838 309.652,171.838C309.652,171.699 314.092,171.838 317.423,171.838C320.893,171.699 322.143,174.059 318.397,179.193C317.702,180.301 316.175,182.107 314.925,182.799C314.925,182.799 311.872,185.297 302.02,185.297C292.999,185.297 292.583,184.324 292.583,184.324C291.751,183.631 291.475,182.383 291.751,181.686C292.167,181.131 293.557,180.578 294.665,180.578L306.044,180.578C307.153,180.578 308.681,179.607 309.374,178.357C310.208,177.248 309.79,175.861 308.681,175.861L300.217,175.861C296.193,175.861 296.747,173.221 299.801,168.783C300.633,167.533 302.159,166.008 303.27,165.174C303.27,165.174 306.6,162.676 316.315,162.676C320.202,162.676 326.722,162.26 326.307,165.592C326.168,167.119 323.947,167.535 323.254,167.535Z" style="fill:white;fill-rule:nonzero;"/>
        <path d="M351.978,167.674L343.096,167.674C341.986,167.674 340.459,168.647 339.767,170.033L334.494,178.221C333.799,179.332 334.217,180.58 335.049,180.58L345.596,180.58C347.121,180.58 348.094,180.719 347.955,181.135C347.816,182.662 345.596,185.299 333.244,185.299C322.142,185.299 322.836,183.772 322.974,182.109C323.252,180.303 328.662,171.701 330.328,169.063C331.994,166.289 334.353,162.678 345.316,162.678C355.586,162.678 355.029,165.037 354.89,165.594C354.892,166.148 354.338,167.674 351.978,167.674Z" style="fill:white;fill-rule:nonzero;"/>
        <path d="M300.494,154.213C301.326,154.213 302.299,155.047 301.603,156.434C300.771,157.545 300.494,158.1 300.078,158.932C299.523,159.764 298.273,160.18 296.748,160.18L291.059,160.18C289.949,160.18 289.949,159.209 290.502,158.24C290.918,157.408 291.195,156.99 291.613,156.434C292.029,155.742 292.722,154.213 294.943,154.213L300.494,154.213Z" style="fill:white;fill-rule:nonzero;"/>
        <path d="M134.521,170.172C132.44,170.172 131.607,171.561 131.191,172.254C130.913,172.809 130.497,173.225 129.942,174.197C129.525,175.168 129.664,176.137 130.219,176.137L136.186,176.137C137.991,176.137 138.961,175.582 139.516,174.75C140.072,173.779 140.21,173.5 141.043,172.113C142.014,170.725 140.765,170.17 140.071,170.17L134.521,170.172Z" style="fill:white;fill-rule:nonzero;"/>
        <path d="M272.463,175.863C276.07,170.033 273.85,173.641 278.984,165.455C283.98,157.127 276.07,155.463 268.298,155.463C256.363,155.463 252.754,156.018 252.754,156.018C251.507,156.018 249.841,157.127 249.148,158.516L234.714,181.83C233.882,183.217 234.158,184.326 235.271,184.604C235.271,184.604 238.74,184.881 250.673,184.881C267.051,184.883 268.576,181.83 272.463,175.863ZM267.605,165.455C267.605,165.455 261.361,175.307 260.943,175.863C260.388,176.695 258.445,179.332 255.531,179.332L249.426,179.332C248.315,179.332 247.76,179.193 248.455,178.082L258.445,162.123C258.863,161.568 259.556,161.152 260.388,161.152L266.355,161.152C268.299,161.152 268.853,163.234 267.605,165.455Z" style="fill:white;fill-rule:nonzero;"/>
        <path d="M176.847,171.283C173.378,171.283 172.268,171.559 169.215,171.699C167.966,171.699 166.301,172.67 165.607,174.057L162.693,179.053C159.085,184.742 166.856,185.158 172.962,185.158C182.816,185.158 187.533,182.383 187.533,182.383C188.782,181.828 190.309,180.301 191.003,179.053L197.387,168.645C198.081,167.535 198.36,165.592 197.663,164.482C197.663,164.482 196.831,162.541 186.978,162.541C177.264,162.541 173.378,164.066 173.378,164.066C172.268,164.621 170.88,165.592 170.463,166.148C170.187,166.979 170.741,167.535 171.852,167.535L186.284,167.535C187.395,167.535 187.811,168.508 187.256,169.477C186.007,171.143 183.926,171.283 183.926,171.283L176.847,171.283ZM182.398,178.082L182.398,178.221C181.426,179.611 179.483,180.859 178.374,180.859L175.46,180.859L172.823,180.859C171.713,180.859 171.296,179.611 172.267,178.221L172.267,178.082C173.239,176.557 175.181,175.307 176.291,175.307L181.842,175.307C182.953,175.307 183.369,176.557 182.398,178.082Z" style="fill:white;fill-rule:nonzero;"/>
        <path d="M157.697,169.617C158.668,168.229 160.194,167.258 161.304,167.258L165.744,167.258C166.438,167.258 168.658,167.119 168.798,165.734C168.937,163.512 164.218,162.959 162.414,162.959C155.892,162.959 152.283,163.236 148.536,168.787C145.622,173.225 142.708,177.807 140.765,181.137C139.1,184.191 140.627,184.885 141.598,184.885L145.622,184.885C147.148,184.885 148.259,184.746 150.618,181.137L157.697,169.617Z" style="fill:white;fill-rule:nonzero;"/>
        <path d="M128.693,166.703L122.448,177.111C121.615,178.219 122.448,178.775 123.141,178.775L125.362,178.775C126.056,178.775 127.027,179.609 126.194,180.857C125.501,182.246 125.362,182.799 124.669,183.631C124.113,184.604 123.142,184.881 121.477,184.881L118.84,184.881C117.036,184.881 118.007,182.244 118.007,182.244C115.371,185.158 109.265,185.158 102.881,185.158C96.776,185.158 88.865,185.158 92.474,179.053L100.245,166.563C101.494,164.481 102.465,163.65 103.714,163.094C103.714,163.094 103.991,162.676 107.321,162.676C109.542,162.676 112.456,162.676 109.959,166.563L102.881,178.082C102.049,179.193 102.465,180.303 103.714,180.303L108.57,180.303C109.819,180.303 111.346,179.195 112.317,178.082C112.317,178.082 115.925,171.838 119.118,166.703C119.95,165.455 122.032,162.678 124.113,162.678L127.583,162.678C129.11,162.678 130.913,163.096 128.693,166.703Z" style="fill:white;fill-rule:nonzero;"/>
        <path d="M191.835,190.711L203.354,190.711L205.713,190.85C206.961,190.85 208.488,189.742 209.182,188.352L211.541,184.883C210.014,185.16 208.488,185.16 206.684,185.16C200.856,185.16 192.808,185.16 196.414,179.055L203.908,166.982C204.879,165.594 206.406,164.068 207.377,163.512C207.377,163.236 207.932,163.096 211.125,163.096C213.205,163.096 216.537,162.541 213.621,166.982L206.961,178.084C206.129,179.195 206.406,180.305 207.516,180.305L212.236,180.305C213.207,180.305 215.01,179.197 215.705,178.084L222.643,166.981C223.336,165.594 225.002,164.068 226.113,163.512C226.113,163.512 226.67,163.096 229.858,163.096C231.664,163.096 235.272,162.541 232.358,166.981L226.529,176.281C226.252,176.697 226.113,176.836 225.836,177.529L218.482,189.463C217.65,190.713 216.123,192.24 215.013,192.934C215.013,192.934 210.156,195.709 200.443,195.709L199.054,195.709C190.033,195.432 190.45,194.875 189.895,194.459C189.339,194.32 188.784,193.488 188.922,192.377C189.059,191.404 190.308,190.711 191.835,190.711Z" style="fill:white;fill-rule:nonzero;"/>
        <path d="M100.245,35.145C99.967,35.145 99.967,35.286 99.828,35.423C87.755,52.353 80.678,63.594 73.183,77.471L72.351,78.997L72.211,79.553C71.518,80.942 71.656,82.467 72.628,83.716C77.068,90.654 101.909,98.842 157.279,98.842C198.633,98.842 242.624,92.181 242.624,79.693C242.624,67.896 199.327,60.82 157.279,60.82C143.262,60.82 129.524,62.624 125.638,63.318C129.385,57.489 145.205,36.255 145.205,36.118C145.482,35.841 145.482,35.841 145.482,35.702L145.482,35.425C145.205,35.286 145.066,35.147 144.789,35.147L100.245,35.145ZM116.342,79.692C116.342,77.194 132.024,73.586 157.28,73.586C182.536,73.586 198.08,77.194 198.08,79.692C198.08,82.466 182.537,85.936 157.28,85.936C132.023,85.937 116.342,82.468 116.342,79.692Z" style="fill:white;fill-rule:nonzero;"/>
        <path d="M131.607,142.002C138.684,142.141 337.824,149.078 342.266,78.443C345.872,20.018 199.328,25.57 199.328,25.57C199.052,25.57 198.08,25.57 198.08,26.263C198.08,27.096 198.496,27.236 199.052,27.236C239.711,27.236 305.769,43.471 303.687,78.443C302.021,106.753 250.398,140.057 131.608,140.057C131.053,140.057 130.498,140.613 130.498,141.029C130.497,141.447 130.913,141.863 131.607,142.002Z" style="fill:white;fill-rule:nonzero;"/>
        <path d="M314.232,136.867L310.348,136.867L310.348,136.035L319.228,136.035L319.228,136.867L315.621,136.867L315.621,143.805L314.232,143.805L314.232,136.867Z" style="fill:white;fill-rule:nonzero;"/>
        <path d="M321.172,136.035L322.836,136.035L325.752,142.557L328.805,136.035L330.469,136.035L330.469,143.805L329.359,143.805L329.359,137.422L329.221,137.422L326.307,143.805L325.195,143.805L322.281,137.422L322.281,143.805L321.172,143.805L321.172,136.035Z" style="fill:white;fill-rule:nonzero;"/>
    </g>
</svg>
