<?xml version="1.0" encoding="UTF-8" standalone="no"?>
<!DOCTYPE svg PUBLIC "-//W3C//DTD SVG 1.1//EN" "http://www.w3.org/Graphics/SVG/1.1/DTD/svg11.dtd">
<svg width="100%" height="100%" viewBox="0 0 210 107" version="1.1" xmlns="http://www.w3.org/2000/svg" xmlns:xlink="http://www.w3.org/1999/xlink" xml:space="preserve" xmlns:serif="http://www.serif.com/" style="fill-rule:evenodd;clip-rule:evenodd;stroke-linejoin:round;stroke-miterlimit:2;">
    <path d="M118.895,20.346C118.895,20.346 105.152,37.268 105.855,38.347C106.83,37.268 100.921,20.161 100.921,20.161C100.921,20.161 99.688,16.564 95.819,4.774L81.81,4.774L47.812,4.774L22.175,4.774L19.615,15.842L43.493,15.842C55.908,15.842 63.488,20.974 61.371,30.067C59.084,39.968 48.248,44.195 36.706,44.195L32.39,44.195L37.942,19.987L18.647,19.987L10.455,55.355L37.853,55.355C58.465,55.355 78.019,44.288 81.545,30.067C82.162,27.453 82.075,20.882 80.491,17.014C80.491,16.921 80.4,16.743 80.313,16.477C80.226,16.384 80.135,15.755 80.491,15.663C80.663,15.571 81.016,15.934 81.016,16.021C81.016,16.021 81.195,16.477 81.367,16.834L98.807,67.149L143.211,15.933L161.972,15.841L166.551,15.841C178.975,15.841 186.641,20.973 184.52,30.066C182.23,39.967 171.315,44.194 159.77,44.194L155.365,44.194L161,19.987L141.713,19.987L133.515,55.355L160.913,55.355C181.524,55.355 201.256,44.288 204.517,30.067C207.864,15.842 193.416,4.774 172.627,4.774L154.484,4.774L131.757,4.774C120.923,17.823 118.895,20.346 118.895,20.346Z" style="fill:white;fill-rule:nonzero;"/>
    <path d="M99.424,67.329C47.281,67.329 5,73.449 5,81.012C5,88.57 47.281,94.69 99.424,94.69C151.663,94.69 193.948,88.57 193.948,81.012C193.949,73.449 151.664,67.329 99.424,67.329ZM96.078,85.873C84.098,85.873 74.498,83.801 74.498,81.278C74.498,78.755 84.097,76.688 96.078,76.688C107.966,76.688 117.576,78.754 117.576,81.278C117.576,83.801 107.966,85.873 96.078,85.873Z" style="fill:white;fill-rule:nonzero;"/>
    <path d="M182.843,94.635L182.843,93.653L177.098,93.653L176.859,94.635L179.251,94.635L178.286,102.226L179.49,102.226L180.445,94.635L182.843,94.635Z" style="fill:white;fill-rule:nonzero;"/>
    <path d="M191.453,102.226L191.453,93.653L190.504,93.653L187.384,99.534L185.968,93.653L185.013,93.653L182.36,102.226L183.337,102.226L185.475,95.617L186.917,102.226L190.276,95.617L190.504,102.226L191.453,102.226Z" style="fill:white;fill-rule:nonzero;"/>
</svg>
