<?xml version="1.0" encoding="UTF-8" standalone="no"?>
<!DOCTYPE svg PUBLIC "-//W3C//DTD SVG 1.1//EN" "http://www.w3.org/Graphics/SVG/1.1/DTD/svg11.dtd">
<svg width="100%" height="100%" viewBox="0 0 399 204" version="1.1" xmlns="http://www.w3.org/2000/svg" xmlns:xlink="http://www.w3.org/1999/xlink" xml:space="preserve" xmlns:serif="http://www.serif.com/" style="fill-rule:evenodd;clip-rule:evenodd;stroke-linejoin:round;stroke-miterlimit:2;">
    <g id="Layer-1" serif:id="Layer 1">
        <rect x="144.638" y="24.195" width="32.917" height="153.615"/>
        <rect x="215.46" y="24.195" width="32.918" height="153.615"/>
        <path d="M26.933,24.195L63.84,24.195L102.743,178.808L65.835,178.808L26.933,24.195Z"/>
        <path d="M130.673,24.195L110.723,24.195C109.725,25.192 109.725,28.185 110.723,29.182C112.718,35.167 111.72,42.15 110.723,48.135L80.798,178.808L95.76,178.808L130.673,24.195Z"/>
        <path d="M219.45,122.948L146.633,122.948L137.655,136.913L195.51,136.913C204.488,136.913 216.458,129.93 219.45,122.948Z"/>
        <path d="M326.183,89.033C275.31,79.058 292.268,37.163 321.195,37.163L368.078,37.163L374.063,24.195L313.215,24.195C295.26,24.195 256.358,42.15 261.345,77.063C263.34,100.005 279.3,108.983 308.228,116.963C358.103,128.933 342.143,164.843 320.198,164.843L266.333,164.843L272.318,178.808L323.19,178.808C350.123,178.808 374.063,159.855 374.063,132.923C373.065,104.993 358.103,95.018 326.183,89.033Z"/>
        <path d="M396.506,3.746L396.506,200.254L4.489,200.254L4.489,3.746L396.506,3.746ZM11.471,10.729L11.471,193.271L389.524,193.271L389.524,10.729L11.471,10.729Z"/>
    </g>
</svg>
